<svg width="331" height="110" viewBox="0 0 331 110" fill="none" xmlns="http://www.w3.org/2000/svg">
<g filter="url(#filter0_d)">
<path d="M85.6958 101V88.22H91.2579C91.8338 88.22 92.3618 88.34 92.8419 88.58C93.3219 88.82 93.7358 89.138 94.0838 89.534C94.4438 89.93 94.7198 90.374 94.9118 90.866C95.1159 91.358 95.2178 91.862 95.2178 92.378C95.2178 92.954 95.1098 93.5 94.8938 94.016C94.6898 94.52 94.4018 94.958 94.0298 95.33C93.6578 95.702 93.2198 95.972 92.7159 96.14L95.7218 101H93.4538L90.6818 96.554H87.7118V101H85.6958ZM87.7118 94.772H91.2398C91.6118 94.772 91.9418 94.664 92.2299 94.448C92.5179 94.22 92.7458 93.926 92.9138 93.566C93.0818 93.206 93.1658 92.81 93.1658 92.378C93.1658 91.934 93.0698 91.538 92.8778 91.19C92.6858 90.83 92.4339 90.542 92.1218 90.326C91.8099 90.11 91.4799 90.002 91.1319 90.002H87.7118V94.772Z" fill="#FFE351"/>
<path d="M106.362 99.218V101H97.5962V88.22H106.2V90.002H99.6122V93.638H105.318V95.312H99.6122V99.218H106.362Z" fill="#FFE351"/>
<path d="M116.002 91.226C115.846 91.046 115.588 90.86 115.228 90.668C114.88 90.464 114.472 90.29 114.004 90.146C113.536 90.002 113.05 89.93 112.546 89.93C111.694 89.93 111.064 90.086 110.656 90.398C110.26 90.71 110.062 91.142 110.062 91.694C110.062 92.102 110.176 92.426 110.404 92.666C110.632 92.894 110.98 93.092 111.448 93.26C111.916 93.416 112.504 93.578 113.212 93.746C114.076 93.95 114.82 94.196 115.444 94.484C116.08 94.76 116.566 95.132 116.902 95.6C117.25 96.068 117.424 96.686 117.424 97.454C117.424 98.33 117.214 99.038 116.794 99.578C116.374 100.118 115.804 100.514 115.084 100.766C114.376 101.006 113.596 101.126 112.744 101.126C111.772 101.126 110.83 100.976 109.918 100.676C109.006 100.376 108.19 99.95 107.47 99.398L108.388 97.67C108.592 97.874 108.916 98.108 109.36 98.372C109.804 98.624 110.32 98.846 110.908 99.038C111.508 99.218 112.132 99.308 112.78 99.308C113.572 99.308 114.184 99.17 114.616 98.894C115.048 98.606 115.264 98.198 115.264 97.67C115.264 97.238 115.12 96.896 114.832 96.644C114.556 96.38 114.154 96.164 113.626 95.996C113.11 95.816 112.486 95.63 111.754 95.438C110.914 95.222 110.212 94.976 109.648 94.7C109.084 94.424 108.658 94.076 108.37 93.656C108.094 93.236 107.956 92.69 107.956 92.018C107.956 91.178 108.16 90.47 108.568 89.894C108.976 89.306 109.528 88.868 110.224 88.58C110.932 88.28 111.724 88.13 112.6 88.13C113.464 88.13 114.262 88.268 114.994 88.544C115.726 88.82 116.368 89.162 116.92 89.57L116.002 91.226Z" fill="#FFE351"/>
<path d="M124.756 101.09C123.844 101.09 123.01 100.91 122.254 100.55C121.51 100.19 120.868 99.704 120.328 99.092C119.788 98.468 119.368 97.772 119.068 97.004C118.78 96.224 118.636 95.426 118.636 94.61C118.636 93.758 118.792 92.948 119.104 92.18C119.416 91.4 119.848 90.71 120.4 90.11C120.952 89.498 121.6 89.018 122.344 88.67C123.1 88.31 123.916 88.13 124.792 88.13C125.704 88.13 126.532 88.316 127.276 88.688C128.032 89.06 128.674 89.558 129.202 90.182C129.742 90.806 130.156 91.502 130.444 92.27C130.744 93.038 130.894 93.824 130.894 94.628C130.894 95.48 130.738 96.296 130.426 97.076C130.126 97.844 129.7 98.534 129.148 99.146C128.596 99.746 127.942 100.22 127.186 100.568C126.442 100.916 125.632 101.09 124.756 101.09ZM120.688 94.61C120.688 95.414 120.856 96.176 121.192 96.896C121.528 97.604 121.996 98.18 122.596 98.624C123.208 99.056 123.934 99.272 124.774 99.272C125.41 99.272 125.98 99.14 126.484 98.876C126.988 98.612 127.414 98.258 127.762 97.814C128.11 97.358 128.374 96.854 128.554 96.302C128.734 95.75 128.824 95.186 128.824 94.61C128.824 93.806 128.656 93.05 128.32 92.342C127.996 91.634 127.528 91.064 126.916 90.632C126.304 90.188 125.59 89.966 124.774 89.966C124.126 89.966 123.55 90.098 123.046 90.362C122.542 90.626 122.116 90.98 121.768 91.424C121.42 91.868 121.15 92.366 120.958 92.918C120.778 93.47 120.688 94.034 120.688 94.61Z" fill="#FFE351"/>
<path d="M132.981 101V88.22H138.543C139.119 88.22 139.647 88.34 140.127 88.58C140.607 88.82 141.021 89.138 141.369 89.534C141.729 89.93 142.005 90.374 142.197 90.866C142.401 91.358 142.503 91.862 142.503 92.378C142.503 92.954 142.395 93.5 142.179 94.016C141.975 94.52 141.687 94.958 141.315 95.33C140.943 95.702 140.505 95.972 140.001 96.14L143.007 101H140.739L137.967 96.554H134.997V101H132.981ZM134.997 94.772H138.525C138.897 94.772 139.227 94.664 139.515 94.448C139.803 94.22 140.031 93.926 140.199 93.566C140.367 93.206 140.451 92.81 140.451 92.378C140.451 91.934 140.355 91.538 140.163 91.19C139.971 90.83 139.719 90.542 139.407 90.326C139.095 90.11 138.765 90.002 138.417 90.002H134.997V94.772Z" fill="#FFE351"/>
<path d="M154.136 90.002H149.888V101H147.854V90.002H143.588V88.22H154.136V90.002Z" fill="#FFE351"/>
<path d="M168.176 101L167.024 99.776C166.496 100.22 165.914 100.568 165.278 100.82C164.654 101.06 163.994 101.18 163.298 101.18C162.47 101.18 161.738 101.018 161.102 100.694C160.466 100.358 159.968 99.914 159.608 99.362C159.26 98.81 159.086 98.192 159.086 97.508C159.086 96.956 159.194 96.464 159.41 96.032C159.638 95.588 159.932 95.192 160.292 94.844C160.652 94.484 161.036 94.16 161.444 93.872C160.904 93.26 160.52 92.744 160.292 92.324C160.076 91.904 159.968 91.472 159.968 91.028C159.968 90.44 160.112 89.924 160.4 89.48C160.7 89.036 161.108 88.688 161.624 88.436C162.14 88.184 162.716 88.058 163.352 88.058C163.94 88.058 164.48 88.166 164.972 88.382C165.464 88.586 165.86 88.892 166.16 89.3C166.46 89.708 166.61 90.2 166.61 90.776C166.61 91.484 166.376 92.102 165.908 92.63C165.452 93.146 164.882 93.638 164.198 94.106L167.078 97.112C167.282 96.704 167.438 96.26 167.546 95.78C167.666 95.288 167.726 94.766 167.726 94.214H169.346C169.346 95.018 169.244 95.768 169.04 96.464C168.848 97.148 168.578 97.772 168.23 98.336L170.786 101H168.176ZM161.786 90.974C161.786 91.214 161.864 91.46 162.02 91.712C162.188 91.952 162.518 92.33 163.01 92.846C163.562 92.498 163.994 92.174 164.306 91.874C164.63 91.562 164.792 91.208 164.792 90.812C164.792 90.428 164.654 90.122 164.378 89.894C164.115 89.654 163.772 89.534 163.352 89.534C162.896 89.534 162.518 89.678 162.218 89.966C161.93 90.242 161.786 90.578 161.786 90.974ZM160.994 97.526C160.994 97.946 161.108 98.312 161.336 98.624C161.564 98.936 161.87 99.182 162.254 99.362C162.638 99.53 163.058 99.614 163.514 99.614C163.958 99.614 164.384 99.53 164.792 99.362C165.212 99.194 165.596 98.954 165.944 98.642L162.632 95.132C162.14 95.48 161.744 95.846 161.444 96.23C161.144 96.614 160.994 97.046 160.994 97.526Z" fill="#FFE351"/>
<path d="M184.293 91.226C184.137 91.046 183.879 90.86 183.519 90.668C183.171 90.464 182.763 90.29 182.295 90.146C181.827 90.002 181.341 89.93 180.837 89.93C179.985 89.93 179.355 90.086 178.947 90.398C178.551 90.71 178.353 91.142 178.353 91.694C178.353 92.102 178.467 92.426 178.695 92.666C178.923 92.894 179.271 93.092 179.739 93.26C180.207 93.416 180.795 93.578 181.503 93.746C182.367 93.95 183.111 94.196 183.735 94.484C184.371 94.76 184.857 95.132 185.193 95.6C185.541 96.068 185.715 96.686 185.715 97.454C185.715 98.33 185.505 99.038 185.085 99.578C184.665 100.118 184.095 100.514 183.375 100.766C182.667 101.006 181.887 101.126 181.035 101.126C180.063 101.126 179.121 100.976 178.209 100.676C177.297 100.376 176.481 99.95 175.761 99.398L176.679 97.67C176.883 97.874 177.207 98.108 177.651 98.372C178.095 98.624 178.611 98.846 179.199 99.038C179.799 99.218 180.423 99.308 181.071 99.308C181.863 99.308 182.475 99.17 182.907 98.894C183.339 98.606 183.555 98.198 183.555 97.67C183.555 97.238 183.411 96.896 183.123 96.644C182.847 96.38 182.445 96.164 181.917 95.996C181.401 95.816 180.777 95.63 180.045 95.438C179.205 95.222 178.503 94.976 177.939 94.7C177.375 94.424 176.949 94.076 176.661 93.656C176.385 93.236 176.247 92.69 176.247 92.018C176.247 91.178 176.451 90.47 176.859 89.894C177.267 89.306 177.819 88.868 178.515 88.58C179.223 88.28 180.015 88.13 180.891 88.13C181.755 88.13 182.553 88.268 183.285 88.544C184.017 88.82 184.659 89.162 185.211 89.57L184.293 91.226Z" fill="#FFE351"/>
<path d="M187.737 101V88.22H193.101C193.677 88.22 194.205 88.34 194.685 88.58C195.177 88.82 195.597 89.138 195.945 89.534C196.305 89.93 196.581 90.374 196.773 90.866C196.965 91.358 197.061 91.862 197.061 92.378C197.061 93.098 196.899 93.776 196.575 94.412C196.251 95.048 195.801 95.564 195.225 95.96C194.649 96.356 193.977 96.554 193.209 96.554H189.753V101H187.737ZM189.753 94.772H193.083C193.647 94.772 194.109 94.544 194.469 94.088C194.829 93.632 195.009 93.062 195.009 92.378C195.009 91.91 194.913 91.502 194.721 91.154C194.529 90.794 194.277 90.512 193.965 90.308C193.665 90.104 193.335 90.002 192.975 90.002H189.753V94.772Z" fill="#FFE351"/>
<path d="M201.728 88.22H203.636L208.604 101H206.48L205.13 97.526H200.198L198.866 101H196.724L201.728 88.22ZM204.734 96.032L202.682 90.434L200.558 96.032H204.734Z" fill="#FFE351"/>
<path d="M79.2647 16.648C79.7127 16.968 79.6807 17.448 79.1687 18.088C78.5927 18.92 77.8567 19.592 76.9607 20.104C76.1287 20.552 75.4567 20.712 74.9447 20.584C74.3047 20.392 73.6647 20.2 73.0247 20.008C72.4487 19.816 71.8087 19.624 71.1047 19.432C69.5047 19.56 67.9687 20.072 66.4967 20.968C65.0247 21.8 63.6167 23.08 62.2727 24.808C60.9287 26.472 59.6487 28.616 58.4327 31.24C57.2167 33.8 56.0327 36.904 54.8807 40.552C51.5527 51.368 46.8807 59.496 40.8647 64.936C34.9127 70.312 27.7447 73 19.3607 73C14.7527 73 11.1687 72.008 8.60874 70.024C6.04874 68.04 4.76874 65.48 4.76874 62.344C4.76874 60.104 5.47274 58.056 6.88074 56.2C8.35274 54.28 10.1127 52.872 12.1607 51.976C12.4167 51.976 12.5767 52.104 12.6407 52.36C12.7687 52.616 12.7687 52.84 12.6407 53.032C11.5527 53.864 10.7847 54.792 10.3367 55.816C9.88874 56.84 9.66474 58.024 9.66474 59.368C9.66474 62.632 10.8807 65.16 13.3127 66.952C15.8087 68.744 19.2967 69.64 23.7767 69.64C26.8487 69.64 29.5367 69.256 31.8407 68.488C34.2087 67.656 36.3207 66.248 38.1767 64.264C40.0327 62.28 41.7287 59.624 43.2647 56.296C44.8647 52.904 46.4967 48.648 48.1607 43.528C50.4647 36.296 53.2807 30.6 56.6087 26.44C59.9367 22.216 63.7767 19.624 68.1287 18.664C63.9047 17.576 59.5207 16.712 54.9767 16.072C50.4327 15.432 45.8247 15.112 41.1527 15.112C37.5687 15.112 34.4327 15.688 31.7447 16.84C29.0567 17.928 26.8487 19.432 25.1207 21.352C23.3927 23.208 22.1447 25.416 21.3767 27.976C20.6087 30.536 20.4167 33.256 20.8007 36.136C20.4807 36.776 20.1287 36.84 19.7447 36.328C19.3607 33.128 19.6167 30.024 20.5127 27.016C21.4087 24.008 22.9127 21.32 25.0247 18.952C27.1367 16.584 29.8567 14.696 33.1847 13.288C36.5767 11.88 40.6087 11.176 45.2807 11.176C52.0647 11.176 58.2727 11.752 63.9047 12.904C69.5367 13.992 74.6567 15.24 79.2647 16.648Z" fill="#FFE351"/>
<path d="M59.179 72.136C62.059 61.128 65.355 51.208 69.067 42.376C72.843 33.544 76.811 26.024 80.971 19.816C85.131 13.608 89.323 8.84001 93.547 5.51201C97.835 2.12001 101.899 0.424011 105.739 0.424011C107.339 0.424011 108.587 0.808012 109.483 1.57601C110.443 2.28001 111.083 3.17601 111.403 4.26401C111.787 5.28801 111.851 6.40801 111.595 7.62401C111.339 8.84001 110.859 9.92801 110.155 10.888C109.963 11.08 109.771 11.144 109.579 11.08C109.387 11.016 109.291 10.856 109.291 10.6C109.611 9.32001 109.259 8.10401 108.235 6.95201C107.211 5.80001 105.579 5.22401 103.339 5.22401C99.883 5.22401 96.587 6.15201 93.451 8.00801C90.379 9.86401 87.371 12.968 84.427 17.32C81.483 21.608 78.603 27.336 75.787 34.504C72.971 41.608 70.091 50.472 67.147 61.096C68.107 59.368 69.195 57.736 70.411 56.2C71.691 54.664 73.067 53.32 74.539 52.168C76.011 51.016 77.579 50.12 79.243 49.48C80.907 48.776 82.635 48.424 84.427 48.424C85.195 48.424 85.739 48.616 86.059 49C86.443 49.384 86.635 49.832 86.635 50.344C86.635 51.176 86.347 52.104 85.771 53.128C84.427 55.496 83.339 57.928 82.507 60.424C81.675 62.92 81.259 65.192 81.259 67.24C81.259 68.136 81.355 68.872 81.547 69.448C81.739 70.024 82.091 70.312 82.603 70.312C83.243 70.312 83.947 69.992 84.715 69.352C85.483 68.648 86.123 67.88 86.635 67.048C86.827 66.92 87.019 66.952 87.211 67.144C87.403 67.272 87.467 67.432 87.403 67.624C86.571 69.032 85.387 70.28 83.851 71.368C82.379 72.456 81.035 73 79.819 73C78.731 73 77.835 72.712 77.131 72.136C76.427 71.496 76.075 70.44 76.075 68.968C76.075 67.816 76.171 66.6 76.363 65.32C76.619 63.976 76.907 62.664 77.227 61.384C77.611 60.104 78.027 58.856 78.475 57.64C78.987 56.36 79.531 55.208 80.107 54.184C80.427 53.416 80.587 52.872 80.587 52.552C80.587 51.976 80.267 51.688 79.627 51.688C78.411 51.688 77.099 52.168 75.691 53.128C74.283 54.024 72.907 55.336 71.563 57.064C70.219 58.728 68.907 60.744 67.627 63.112C66.411 65.48 65.355 68.104 64.459 70.984C64.331 71.432 63.819 71.88 62.923 72.328C62.027 72.776 61.035 73 59.947 73C59.307 73 59.051 72.712 59.179 72.136Z" fill="#FFE351"/>
<path d="M110.752 53.224C110.752 56.872 105.92 59.368 96.256 60.712C96.192 61.352 96.128 61.992 96.064 62.632C96.064 63.272 96.064 63.944 96.064 64.648C96.064 66.312 96.448 67.592 97.216 68.488C97.984 69.384 99.2 69.832 100.864 69.832C102.08 69.832 103.328 69.48 104.608 68.776C105.888 68.072 106.912 67.176 107.68 66.088C107.936 65.96 108.128 66.024 108.256 66.28C108.384 66.472 108.416 66.696 108.352 66.952C107.072 68.616 105.44 70.056 103.456 71.272C101.536 72.424 99.456 73 97.216 73C94.976 73 93.344 72.456 92.32 71.368C91.36 70.216 90.88 68.616 90.88 66.568C90.88 64.584 91.296 62.536 92.128 60.424C92.96 58.248 94.016 56.264 95.296 54.472C96.64 52.68 98.144 51.24 99.808 50.152C101.536 49 103.264 48.424 104.992 48.424C106.72 48.424 108.096 48.936 109.12 49.96C110.208 50.92 110.752 52.008 110.752 53.224ZM102.4 50.92C100.928 50.92 99.648 51.624 98.56 53.032C97.536 54.376 96.832 56.488 96.448 59.368C99.52 59.048 101.792 58.472 103.264 57.64C104.736 56.744 105.472 55.656 105.472 54.376C105.472 53.416 105.184 52.616 104.608 51.976C104.032 51.272 103.296 50.92 102.4 50.92Z" fill="#FFE351"/>
<path d="M193.571 11.368C196.515 11.752 199.171 12.488 201.539 13.576C203.907 14.664 205.891 16.04 207.491 17.704C209.155 19.304 210.435 21.16 211.331 23.272C212.227 25.32 212.675 27.496 212.675 29.8C212.675 32.808 212.067 35.624 210.851 38.248C209.699 40.872 208.035 43.144 205.859 45.064C203.747 46.984 201.155 48.52 198.083 49.672C195.011 50.76 191.555 51.304 187.715 51.304C183.555 51.304 180.099 50.28 177.347 48.232C173.315 56.872 168.579 63.176 163.139 67.144C157.699 71.048 151.843 73 145.571 73C140.259 73 136.323 71.688 133.763 69.064C131.267 66.376 130.019 63.016 130.019 58.984C130.019 57.768 130.211 56.552 130.595 55.336C131.043 54.056 131.651 52.872 132.419 51.784C133.187 50.632 134.115 49.608 135.203 48.712C136.355 47.816 137.635 47.08 139.043 46.504C139.235 46.376 139.395 46.376 139.523 46.504C139.715 46.632 139.747 46.856 139.619 47.176C137.699 48.2 136.291 49.576 135.395 51.304C134.499 53.032 134.051 54.888 134.051 56.872C134.051 58.6 134.339 60.264 134.915 61.864C135.491 63.4 136.387 64.744 137.603 65.896C138.883 67.048 140.483 67.976 142.403 68.68C144.323 69.32 146.627 69.64 149.315 69.64C152.387 69.64 155.075 69.256 157.379 68.488C159.683 67.72 161.763 66.376 163.619 64.456C165.539 62.536 167.267 59.944 168.803 56.68C170.403 53.352 172.003 49.16 173.603 44.104C172.451 42.248 171.651 40.232 171.203 38.056C171.267 37.8 171.395 37.608 171.587 37.48C171.779 37.352 171.939 37.384 172.067 37.576C172.515 39.432 173.187 41.096 174.083 42.568C174.339 41.736 174.563 40.872 174.755 39.976C175.011 39.08 175.267 38.184 175.523 37.288C177.123 31.592 178.883 26.856 180.803 23.08C182.723 19.304 184.899 16.264 187.331 13.96C187.011 13.896 186.531 13.864 185.891 13.864C179.107 13.864 173.411 15.432 168.803 18.568C164.195 21.64 160.963 26.376 159.107 32.776C158.915 32.968 158.691 33 158.435 32.872C158.243 32.68 158.147 32.36 158.147 31.912C160.323 25.512 163.939 20.456 168.995 16.744C174.115 13.032 180.835 11.176 189.155 11.176H190.691C193.123 9.57601 195.843 8.39201 198.851 7.62401C199.171 7.62401 199.331 7.78401 199.331 8.10401C199.331 8.36001 199.171 8.55201 198.851 8.68001C196.931 9.25601 195.171 10.152 193.571 11.368ZM188.771 49.384C191.459 49.384 193.891 48.936 196.067 48.04C198.243 47.144 200.099 45.896 201.635 44.296C203.235 42.696 204.451 40.84 205.283 38.728C206.115 36.616 206.531 34.344 206.531 31.912C206.531 27.368 205.155 23.528 202.403 20.392C199.715 17.192 195.843 15.144 190.787 14.248C187.587 18.28 184.931 24.424 182.819 32.68C182.115 35.304 181.347 37.8 180.515 40.168C179.747 42.472 178.915 44.648 178.019 46.696C180.643 48.488 184.227 49.384 188.771 49.384Z" fill="#FFE351"/>
<path d="M226.814 53.224C226.814 56.872 221.982 59.368 212.318 60.712C212.254 61.352 212.19 61.992 212.126 62.632C212.126 63.272 212.126 63.944 212.126 64.648C212.126 66.312 212.51 67.592 213.278 68.488C214.046 69.384 215.262 69.832 216.926 69.832C218.142 69.832 219.39 69.48 220.67 68.776C221.95 68.072 222.974 67.176 223.742 66.088C223.998 65.96 224.19 66.024 224.318 66.28C224.446 66.472 224.478 66.696 224.414 66.952C223.134 68.616 221.502 70.056 219.518 71.272C217.598 72.424 215.518 73 213.278 73C211.038 73 209.406 72.456 208.382 71.368C207.422 70.216 206.942 68.616 206.942 66.568C206.942 64.584 207.358 62.536 208.19 60.424C209.022 58.248 210.078 56.264 211.358 54.472C212.702 52.68 214.206 51.24 215.87 50.152C217.598 49 219.326 48.424 221.054 48.424C222.782 48.424 224.158 48.936 225.182 49.96C226.27 50.92 226.814 52.008 226.814 53.224ZM218.462 50.92C216.99 50.92 215.71 51.624 214.622 53.032C213.598 54.376 212.894 56.488 212.51 59.368C215.582 59.048 217.854 58.472 219.326 57.64C220.798 56.744 221.534 55.656 221.534 54.376C221.534 53.416 221.246 52.616 220.67 51.976C220.094 51.272 219.358 50.92 218.462 50.92Z" fill="#FFE351"/>
<path d="M256.028 66.952C256.156 66.824 256.316 66.824 256.508 66.952C256.7 67.08 256.764 67.272 256.7 67.528C255.548 69.192 254.268 70.536 252.86 71.56C251.452 72.52 250.108 73 248.828 73C247.356 73 246.396 71.976 245.948 69.928C245.564 67.816 245.788 65.32 246.62 62.44C244.892 65.192 243.004 67.56 240.956 69.544C238.972 71.464 236.86 72.616 234.62 73C233.084 73 231.9 72.296 231.068 70.888C230.236 69.48 229.82 67.848 229.82 65.992C229.82 63.88 230.332 61.8 231.356 59.752C232.38 57.64 233.724 55.752 235.388 54.088C237.116 52.424 239.004 51.08 241.052 50.056C243.164 48.968 245.276 48.424 247.388 48.424C249.628 48.424 251.388 48.968 252.668 50.056C253.308 49.608 254.108 49.224 255.068 48.904C256.092 48.584 256.988 48.424 257.756 48.424C258.012 48.424 258.14 48.584 258.14 48.904C256.668 50.696 255.388 52.68 254.3 54.856C253.276 56.968 252.476 59.016 251.9 61C251.324 62.92 250.972 64.648 250.844 66.184C250.716 67.72 250.844 68.776 251.228 69.352C251.548 69.736 252.092 69.864 252.86 69.736C253.628 69.544 254.684 68.616 256.028 66.952ZM237.596 69.448C238.364 69.448 239.292 68.968 240.38 68.008C241.532 67.048 242.716 65.768 243.932 64.168C245.148 62.568 246.332 60.776 247.484 58.792C248.7 56.808 249.756 54.792 250.652 52.744C250.396 51.912 249.788 51.24 248.828 50.728C247.932 50.216 246.876 49.96 245.66 49.96C244.188 49.96 242.812 50.344 241.532 51.112C240.252 51.816 239.132 52.84 238.172 54.184C237.276 55.464 236.54 57.032 235.964 58.888C235.452 60.68 235.196 62.664 235.196 64.84C235.196 66.248 235.42 67.368 235.868 68.2C236.38 69.032 236.956 69.448 237.596 69.448Z" fill="#FFE351"/>
<path d="M271.306 51.208C271.306 52.168 271.21 53.256 271.018 54.472C270.826 55.688 270.57 56.936 270.25 58.216C271.53 55.144 272.938 52.744 274.474 51.016C276.01 49.288 277.674 48.424 279.466 48.424C280.426 48.424 281.162 48.648 281.674 49.096C282.186 49.544 282.442 50.12 282.442 50.824C282.442 51.464 282.186 52.296 281.674 53.32C281.226 54.344 280.842 55.048 280.522 55.432C280.394 55.496 280.266 55.496 280.138 55.432C280.01 55.304 279.946 55.176 279.946 55.048C279.946 54.6 279.754 54.216 279.37 53.896C279.05 53.576 278.538 53.416 277.834 53.416C275.594 53.416 273.546 54.952 271.69 58.024C269.898 61.032 268.234 65.384 266.698 71.08C266.634 71.4 266.41 71.688 266.026 71.944C265.642 72.136 265.194 72.328 264.682 72.52C264.234 72.648 263.754 72.776 263.242 72.904C262.73 72.968 262.282 73 261.898 73C261.194 73 261.002 72.616 261.322 71.848C261.898 70.504 262.442 69.064 262.954 67.528C263.53 65.928 264.042 64.328 264.49 62.728C264.938 61.128 265.322 59.592 265.642 58.12C265.962 56.584 266.218 55.176 266.41 53.896C266.538 52.936 266.57 52.2 266.506 51.688C266.506 51.176 266.25 50.92 265.738 50.92C265.098 50.92 264.426 51.208 263.722 51.784C263.082 52.296 262.474 52.968 261.898 53.8C261.642 53.992 261.386 54.024 261.13 53.896C260.938 53.704 260.906 53.48 261.034 53.224C261.418 52.712 261.866 52.2 262.378 51.688C262.954 51.112 263.562 50.6 264.202 50.152C264.906 49.64 265.61 49.224 266.314 48.904C267.082 48.584 267.85 48.424 268.618 48.424C269.642 48.424 270.346 48.68 270.73 49.192C271.114 49.64 271.306 50.312 271.306 51.208Z" fill="#FFE351"/>
<path d="M322.562 1.67201C323.522 1.67201 324.29 1.92801 324.866 2.44001C325.506 2.88801 325.922 3.52801 326.114 4.36001C326.37 5.12801 326.402 6.02401 326.21 7.04801C326.082 8.07201 325.73 9.09601 325.154 10.12C325.026 10.248 324.866 10.248 324.674 10.12C324.482 9.99201 324.354 9.83201 324.29 9.64001C324.418 8.87201 324.13 8.23201 323.426 7.72001C322.786 7.20801 321.762 6.95201 320.354 6.95201C317.73 6.95201 315.074 7.94401 312.386 9.92801C309.762 11.848 307.202 14.408 304.706 17.608C302.21 20.808 299.874 24.488 297.698 28.648C295.522 32.808 293.634 37.096 292.034 41.512C290.434 45.928 289.154 50.312 288.194 54.664C287.298 59.016 286.85 62.984 286.85 66.568C286.85 68.488 287.394 69.448 288.482 69.448C289.25 69.448 289.986 69.128 290.69 68.488C291.458 67.848 292.322 66.888 293.282 65.608C293.474 65.48 293.634 65.512 293.762 65.704C293.954 65.832 294.018 66.024 293.954 66.28C292.674 68.2 291.17 69.8 289.442 71.08C287.714 72.36 286.146 73 284.738 73C283.522 73 282.658 72.648 282.146 71.944C281.698 71.24 281.474 70.344 281.474 69.256C281.474 66.248 282.114 62.504 283.394 58.024C284.674 53.48 286.37 48.712 288.482 43.72C290.658 38.664 293.154 33.64 295.97 28.648C298.786 23.656 301.698 19.176 304.706 15.208C307.778 11.176 310.85 7.91201 313.922 5.41601C316.994 2.92001 319.874 1.67201 322.562 1.67201Z" fill="#FFE351"/>
</g>
<defs>
<filter id="filter0_d" x="0.768738" y="0.424011" width="329.564" height="108.756" filterUnits="userSpaceOnUse" color-interpolation-filters="sRGB">
<feFlood flood-opacity="0" result="BackgroundImageFix"/>
<feColorMatrix in="SourceAlpha" type="matrix" values="0 0 0 0 0 0 0 0 0 0 0 0 0 0 0 0 0 0 127 0" result="hardAlpha"/>
<feOffset dy="4"/>
<feGaussianBlur stdDeviation="2"/>
<feComposite in2="hardAlpha" operator="out"/>
<feColorMatrix type="matrix" values="0 0 0 0 0 0 0 0 0 0 0 0 0 0 0 0 0 0 0.25 0"/>
<feBlend mode="normal" in2="BackgroundImageFix" result="effect1_dropShadow"/>
<feBlend mode="normal" in="SourceGraphic" in2="effect1_dropShadow" result="shape"/>
</filter>
</defs>
</svg>
